<mxfile host="app.diagrams.net" modified="2021-09-27T01:44:55.600Z" agent="5.0 (Windows NT 10.0; Win64; x64) AppleWebKit/537.36 (KHTML, like Gecko) Chrome/93.0.4577.63 Safari/537.36" etag="hDup4T1E1OW5tiUFpSL3" version="15.3.2" type="github">
  <diagram id="C5RBs43oDa-KdzZeNtuy" name="Page-1">
    <mxGraphModel dx="1038" dy="547" grid="1" gridSize="10" guides="1" tooltips="1" connect="1" arrows="1" fold="1" page="1" pageScale="1" pageWidth="827" pageHeight="1169" math="0" shadow="0">
      <root>
        <mxCell id="WIyWlLk6GJQsqaUBKTNV-0" />
        <mxCell id="WIyWlLk6GJQsqaUBKTNV-1" parent="WIyWlLk6GJQsqaUBKTNV-0" />
        <mxCell id="b6b0p_BM74JYDrjyKbqU-8" value="" style="rounded=0;whiteSpace=wrap;html=1;shadow=1;dashed=1;" vertex="1" parent="WIyWlLk6GJQsqaUBKTNV-1">
          <mxGeometry x="240" y="30" width="560" height="130" as="geometry" />
        </mxCell>
        <mxCell id="b6b0p_BM74JYDrjyKbqU-3" style="edgeStyle=orthogonalEdgeStyle;rounded=0;orthogonalLoop=1;jettySize=auto;html=1;entryX=0.5;entryY=0.167;entryDx=0;entryDy=0;entryPerimeter=0;" edge="1" parent="WIyWlLk6GJQsqaUBKTNV-1" source="b6b0p_BM74JYDrjyKbqU-0" target="b6b0p_BM74JYDrjyKbqU-2">
          <mxGeometry relative="1" as="geometry" />
        </mxCell>
        <mxCell id="b6b0p_BM74JYDrjyKbqU-25" style="edgeStyle=orthogonalEdgeStyle;rounded=0;orthogonalLoop=1;jettySize=auto;html=1;entryX=0;entryY=0.5;entryDx=0;entryDy=0;" edge="1" parent="WIyWlLk6GJQsqaUBKTNV-1" source="b6b0p_BM74JYDrjyKbqU-0" target="b6b0p_BM74JYDrjyKbqU-8">
          <mxGeometry relative="1" as="geometry" />
        </mxCell>
        <mxCell id="b6b0p_BM74JYDrjyKbqU-0" value="DNS 域名解析" style="rounded=1;whiteSpace=wrap;html=1;" vertex="1" parent="WIyWlLk6GJQsqaUBKTNV-1">
          <mxGeometry x="40" y="65" width="120" height="60" as="geometry" />
        </mxCell>
        <mxCell id="b6b0p_BM74JYDrjyKbqU-11" style="edgeStyle=orthogonalEdgeStyle;rounded=0;orthogonalLoop=1;jettySize=auto;html=1;entryX=0.5;entryY=0;entryDx=0;entryDy=0;" edge="1" parent="WIyWlLk6GJQsqaUBKTNV-1" source="b6b0p_BM74JYDrjyKbqU-2" target="b6b0p_BM74JYDrjyKbqU-10">
          <mxGeometry relative="1" as="geometry" />
        </mxCell>
        <mxCell id="b6b0p_BM74JYDrjyKbqU-2" value="建立 TCP 链接" style="rounded=1;whiteSpace=wrap;html=1;" vertex="1" parent="WIyWlLk6GJQsqaUBKTNV-1">
          <mxGeometry x="40" y="181" width="120" height="60" as="geometry" />
        </mxCell>
        <mxCell id="b6b0p_BM74JYDrjyKbqU-7" value="" style="shape=image;verticalLabelPosition=bottom;labelBackgroundColor=#ffffff;verticalAlign=top;aspect=fixed;imageAspect=0;image=https://pic2.zhimg.com/80/v2-4e68ba51d411b26b607307dbd83a97ed_720w.png;" vertex="1" parent="WIyWlLk6GJQsqaUBKTNV-1">
          <mxGeometry x="260" y="70" width="520" height="67" as="geometry" />
        </mxCell>
        <mxCell id="b6b0p_BM74JYDrjyKbqU-9" value="&lt;span style=&quot;color: rgb(0, 0, 0); font-family: helvetica; font-size: 12px; font-style: normal; font-weight: 400; letter-spacing: normal; text-align: center; text-indent: 0px; text-transform: none; word-spacing: 0px; background-color: rgb(248, 249, 250); display: inline; float: none;&quot;&gt;确定域名指向的服务器 IP&lt;/span&gt;" style="text;whiteSpace=wrap;html=1;" vertex="1" parent="WIyWlLk6GJQsqaUBKTNV-1">
          <mxGeometry x="450" y="40" width="140" height="30" as="geometry" />
        </mxCell>
        <mxCell id="b6b0p_BM74JYDrjyKbqU-18" style="edgeStyle=orthogonalEdgeStyle;rounded=0;orthogonalLoop=1;jettySize=auto;html=1;entryX=0.5;entryY=0;entryDx=0;entryDy=0;" edge="1" parent="WIyWlLk6GJQsqaUBKTNV-1" source="b6b0p_BM74JYDrjyKbqU-10" target="b6b0p_BM74JYDrjyKbqU-17">
          <mxGeometry relative="1" as="geometry" />
        </mxCell>
        <mxCell id="b6b0p_BM74JYDrjyKbqU-10" value="发送 HTTP 请求" style="rounded=1;whiteSpace=wrap;html=1;" vertex="1" parent="WIyWlLk6GJQsqaUBKTNV-1">
          <mxGeometry x="40" y="311" width="120" height="60" as="geometry" />
        </mxCell>
        <mxCell id="b6b0p_BM74JYDrjyKbqU-20" style="edgeStyle=orthogonalEdgeStyle;rounded=0;orthogonalLoop=1;jettySize=auto;html=1;" edge="1" parent="WIyWlLk6GJQsqaUBKTNV-1" source="b6b0p_BM74JYDrjyKbqU-17" target="b6b0p_BM74JYDrjyKbqU-19">
          <mxGeometry relative="1" as="geometry" />
        </mxCell>
        <mxCell id="b6b0p_BM74JYDrjyKbqU-17" value="服务器响应请求" style="rounded=1;whiteSpace=wrap;html=1;" vertex="1" parent="WIyWlLk6GJQsqaUBKTNV-1">
          <mxGeometry x="40" y="441" width="120" height="60" as="geometry" />
        </mxCell>
        <mxCell id="b6b0p_BM74JYDrjyKbqU-22" style="edgeStyle=orthogonalEdgeStyle;rounded=0;orthogonalLoop=1;jettySize=auto;html=1;" edge="1" parent="WIyWlLk6GJQsqaUBKTNV-1" source="b6b0p_BM74JYDrjyKbqU-19" target="b6b0p_BM74JYDrjyKbqU-21">
          <mxGeometry relative="1" as="geometry" />
        </mxCell>
        <mxCell id="b6b0p_BM74JYDrjyKbqU-19" value="返回响应结果" style="rounded=1;whiteSpace=wrap;html=1;" vertex="1" parent="WIyWlLk6GJQsqaUBKTNV-1">
          <mxGeometry x="40" y="566" width="120" height="60" as="geometry" />
        </mxCell>
        <mxCell id="b6b0p_BM74JYDrjyKbqU-24" style="edgeStyle=orthogonalEdgeStyle;rounded=0;orthogonalLoop=1;jettySize=auto;html=1;" edge="1" parent="WIyWlLk6GJQsqaUBKTNV-1" source="b6b0p_BM74JYDrjyKbqU-21" target="b6b0p_BM74JYDrjyKbqU-23">
          <mxGeometry relative="1" as="geometry" />
        </mxCell>
        <mxCell id="b6b0p_BM74JYDrjyKbqU-21" value="关闭 TCP 链接" style="rounded=1;whiteSpace=wrap;html=1;" vertex="1" parent="WIyWlLk6GJQsqaUBKTNV-1">
          <mxGeometry x="40" y="701" width="120" height="60" as="geometry" />
        </mxCell>
        <mxCell id="b6b0p_BM74JYDrjyKbqU-23" value="浏览器渲页面" style="rounded=1;whiteSpace=wrap;html=1;" vertex="1" parent="WIyWlLk6GJQsqaUBKTNV-1">
          <mxGeometry x="40" y="841" width="120" height="60" as="geometry" />
        </mxCell>
      </root>
    </mxGraphModel>
  </diagram>
</mxfile>
